<svg version="1.2" xmlns="http://www.w3.org/2000/svg" viewBox="0 0 1640 856" width="1640" height="856">
	<title>New Project</title>
	<style>
		.s0 { fill: #000000 } 
	</style>
	<path id="S.O.S (CLASSIFIED)" class="s0" aria-label="S.O.S (CLASSIFIED)"  d="m44.6 452.7l-0.4-36.3q-0.1-3.6 0-5.5 0.2-1.8 1.4-3.7 1.2-2.1 3.5-2.1 2.2 0 3.4 1.7 1.2 1.6 1.4 3.2 0.2 1.6 0.3 4.7 0.7 16.2 7.2 23.7 6.8 8.4 17.2 8.4 8.2-0.1 12.8-9.6 4.7-9.4 4.6-21.2-0.3-24.3-16.6-30.7-7.2-2.6-16.9-7.1-8.8-4.6-14-16.6-5.2-12-5.4-26.3-0.2-18.1 7.3-31.6 7.5-13.6 19.2-13.8 12.4-0.1 20.6 12.6 0.7-4.9 1.1-7.1 0.5-2.1 1.5-3.9 1-1.9 2.7-1.9 4.3-0.1 4.5 11.2l0.4 36.1q0.1 3.7 0 5.7-0.1 1.8-1.4 3.7-1.2 1.9-3.5 2-4.3 0-5-7.6-0.5-4.7-0.9-7.1-0.4-2.5-2-8.4-1.5-5.9-3.5-9.2-1.9-3.5-5.7-6.4-3.8-3-8.7-2.9-7.5 0.1-12.4 8.3-4.8 8.1-4.7 19.1 0.1 9.4 3.6 16.1 3.4 6.8 8.4 9.4l11.8 4.8q9.4 4.1 13.3 7.1 4 2.9 8.3 10.5 7.1 14.1 7.4 32.6 0.3 19.1-7.2 33.9-7.4 14.9-19.5 15-15.2 0.2-24.3-12.4-0.9 7.1-2 10-1 2.8-3.2 2.8-4.4 0.1-4.6-11.2zm98-10.4q-0.1-6.5 2.4-11.8 2.5-5.2 6.5-5.3 3.7 0 6.4 4.9 2.8 4.9 2.9 12 0.1 6.6-2.4 12-2.5 5.3-6.4 5.4-3.7 0-6.5-5-2.9-5.1-2.9-12.2zm55.5-32.8q-0.5-12.9-0.7-34.2-0.3-21.4-0.2-34.1 0.1-12.9 1.3-23.8 1.2-10.8 2.8-15.7 1.6-4.9 5.3-8.5 3.8-3.5 7.9-4.4 4.3-0.8 11.8-0.9 5.5-0.1 9.1 0.3 3.6 0.3 6.9 2 3.4 1.6 5.4 4 2 2.2 3.8 7.3 1.8 4.9 2.7 10.5 0.9 5.6 1.7 15.4 0.7 9.8 1 20.5 0.3 10.7 0.5 26.5 0.3 21.4 0.2 34.3-0.2 12.7-1.4 23.4-1.1 10.6-2.8 15.6-1.5 5-5.3 8.5-3.7 3.4-8 4.4-4.3 0.9-11.6 1-7.4 0.1-11.6-0.7-4.3-0.9-8.1-4.2-3.9-3.4-5.6-8.3-1.7-5-3.2-15.5-1.4-10.7-1.9-23.4zm9.3-36.9q0.5 39 2.4 52.9 1.5 10.7 5.3 15.1 3.9 4.4 13.2 4.2 9.5-0.1 13.3-4.8 3.8-4.8 4.8-16.6 1.4-14.2 1-48.3-0.1-1.5-0.1-3-0.5-37.3-2.3-50.2-1.8-10.7-5.9-14-3.9-3.4-12.6-3.3-9.3 0.1-13.2 4.1-3.8 3.8-4.9 15.6-1.5 12.7-1 48.3zm88.2 67.7q0-6.5 2.5-11.8 2.5-5.2 6.5-5.3 3.6 0 6.4 4.9 2.8 4.9 2.9 12 0.1 6.6-2.4 12-2.5 5.3-6.4 5.4-3.7 0-6.5-5-2.9-5.1-3-12.2zm55.2 8.4l-0.5-36.3q0-3.6 0.1-5.5 0.2-1.8 1.4-3.7 1.2-2.1 3.5-2.1 2.2 0 3.4 1.7 1.2 1.6 1.4 3.2 0.1 1.6 0.3 4.7 0.7 16.2 7.2 23.7 6.8 8.4 17.2 8.4 8.2-0.1 12.8-9.6 4.7-9.4 4.6-21.2-0.4-24.3-16.7-30.7-7.1-2.6-16.8-7.1-8.8-4.6-14-16.6-5.2-12-5.4-26.3-0.3-18.1 7.2-31.6 7.6-13.6 19.3-13.8 12.4-0.1 20.6 12.6 0.7-4.9 1.1-7.1 0.4-2.1 1.5-3.9 1-1.9 2.7-1.9 4.3-0.1 4.4 11.2l0.5 36.1q0.1 3.7-0.1 5.7-0.1 1.8-1.3 3.7-1.2 1.9-3.5 2-4.3 0-5.1-7.6-0.5-4.7-0.9-7.1-0.3-2.5-1.9-8.4-1.5-5.9-3.5-9.2-2-3.5-5.8-6.4-3.8-3-8.6-2.9-7.6 0.1-12.4 8.3-4.9 8.1-4.7 19.1 0.1 9.4 3.5 16.1 3.5 6.8 8.4 9.4l11.9 4.8q9.4 4.1 13.3 7.1 3.9 2.9 8.2 10.5 7.2 14.1 7.5 32.6 0.3 19.1-7.2 33.9-7.5 14.9-19.6 15-15.1 0.2-24.2-12.4-0.9 7.1-2 10-1 2.8-3.2 2.8-4.5 0.1-4.6-11.2zm169.8-78q-0.3-19.7 2.6-37.8 2.9-18.1 7.1-30.2 4.4-12.3 9.2-21.3 4.9-9.2 8.6-13.3 3.6-4.2 5-4.2 2.5 0 3.5 2.7 1.2 2.5 1.2 4.9 0 1.9-0.4 3.5-0.4 1.5-1 2.1-0.5 0.7-1.9 2.6-9 11.9-14.7 28.7-5.7 16.8-7.5 31.9-1.8 15-1.6 30.3 0.3 25.4 6.7 49.7 6.3 24.2 19.2 40.2 1.7 2.1 2.3 2.9 0.5 0.7 1 2.1 0.4 1.5 0.5 3.5 0 2.4-1 5.1-1 2.6-3.5 2.6-2.9 0.1-10-10.4-7-10.5-12.6-24.6-12.2-31.8-12.7-71zm57.1-0.8q-0.5-36.6 9.6-61.7 10.2-25.2 24.4-25.4 10.7-0.1 19.2 12.9 0.8-3.1 1.2-4.8 0.4-1.8 0.6-2.6 0.2-0.8 0.2-1 1.7-4.8 4.1-4.8 4.3 0 4.5 11.2l0.5 38.2q0 3.6-0.1 5.5-0.1 1.8-1.4 3.9-1.2 1.9-3.4 1.9-2.1 0-3.3-1.4-1.2-1.6-1.4-3-0.3-1.3-0.6-4.6-1.6-16.2-7-25.4-5.4-9.3-12.2-9.2-10.1 0.1-17.7 20.4-7.5 20.2-7.1 49.8 0.4 29.9 8.4 50 8.1 20.1 18.3 20 6.2-0.1 12-7.9 5.9-8 6.4-25.8 0.2-7.9 4.9-8.1 5.1-0.1 5.1 9 0.3 19.2-8.1 34.3-8.2 15.1-20.6 15.2-14.5 0.2-25.3-24.7-10.7-24.9-11.2-61.9zm76.4 74.9q0-3.9 1-5.9 1.1-2.2 2-2.5 1-0.3 2.7-0.3l5.4-0.1-1.8-134-5.4 0.1q-5.7 0-5.9-8.1 0-4 1-6.1 1.1-2 2-2.3 1-0.3 2.7-0.3l23.6-0.3q6-0.1 6.1 8.4 0.1 8.1-5.8 8.4l-8.2 0.1 1.8 134 35.1-0.4-0.2-18.9q-0.1-3.9 0-5.8 0.1-2 1.3-3.8 1.3-1.7 3.6-1.7 3.4-0.1 4.2 2.8 0.8 2.8 0.9 8.3l0.3 24.4q0.1 6.6-1 9-1.1 2.3-4.6 2.3l-54.9 0.8q-5.8 0-5.9-8.1zm75.8-1q-0.1-5.5 2.4-8.1 0.8-0.5 6.2-0.6l15.8-143.9q0.5-5 1.6-7.3 1.2-2.4 2.3-2.8 1.2-0.5 3.8-0.5 2.6 0 3.9 0.4 1.2 0.4 2.3 2.9 1.2 2.4 1.8 7.3l19.6 143.2q5.4-0.1 6.3 0.7 2.5 1.9 2.5 7.8 0.2 8.1-6.1 8.2l-14.9 0.2q-1.9 0-2.9-0.2-1-0.3-2.2-2.1-1.1-2-1.1-5.8-0.1-4.1 1-6 1.1-2 2.4-2.3 1.4-0.3 4.7-0.3l-3.8-28.5-23.6 0.3-3 28.5q3.2 0 4.6 0.3 1.4 0.2 2.5 2.2 1.1 1.9 1.1 6 0.1 3.9-0.9 5.8-1.1 1.9-2.2 2.2-0.9 0.2-2.9 0.3l-14.8 0.2q-6.3 0-6.4-8.1zm32.5-140.4l-8.6 86.2 19.3-0.2zm47.7 139.3l-0.5-36.3q0-3.6 0.1-5.5 0.2-1.9 1.4-3.7 1.1-2.1 3.5-2.1 2.2 0 3.4 1.7 1.2 1.6 1.4 3.2 0.1 1.6 0.3 4.7 0.6 16.2 7.2 23.7 6.8 8.4 17.2 8.4 8.1-0.1 12.8-9.6 4.7-9.4 4.6-21.2-0.4-24.4-16.7-30.7-7.1-2.6-16.8-7.2-8.8-4.5-14-16.5-5.3-12-5.4-26.3-0.3-18.1 7.2-31.6 7.5-13.6 19.3-13.8 12.4-0.2 20.6 12.6 0.6-5 1-7.1 0.5-2.2 1.6-3.9 1-1.9 2.6-1.9 4.4-0.1 4.5 11.2l0.5 36.1q0.1 3.6-0.1 5.6-0.1 1.9-1.3 3.8-1.2 1.9-3.5 1.9-4.3 0.1-5.1-7.5-0.5-4.7-0.9-7.1-0.4-2.6-1.9-8.4-1.5-5.9-3.5-9.2-2-3.5-5.8-6.4-3.8-3-8.6-2.9-7.6 0.1-12.5 8.3-4.8 8.1-4.6 19.1 0.1 9.3 3.5 16.1 3.5 6.8 8.4 9.4l11.9 4.8q9.4 4.1 13.3 7.1 3.9 2.9 8.2 10.5 7.2 14.1 7.5 32.5 0.3 19.2-7.2 34-7.5 14.9-19.6 15-15.1 0.2-24.2-12.4-0.9 7.1-2 9.9-1 2.9-3.2 2.9-4.5 0.1-4.6-11.2zm76.5-1l-0.4-36.3q-0.1-3.6 0-5.5 0.2-1.9 1.4-3.7 1.2-2.1 3.5-2.1 2.2 0 3.4 1.7 1.2 1.6 1.4 3.2 0.2 1.6 0.3 4.7 0.7 16.2 7.2 23.7 6.8 8.4 17.2 8.4 8.2-0.1 12.8-9.6 4.8-9.4 4.6-21.2-0.3-24.4-16.6-30.7-7.2-2.6-16.9-7.2-8.8-4.5-14-16.5-5.2-12-5.4-26.3-0.2-18.1 7.3-31.6 7.5-13.6 19.2-13.8 12.4-0.2 20.6 12.6 0.7-5 1.1-7.1 0.5-2.2 1.5-3.9 1-1.9 2.7-1.9 4.3-0.1 4.5 11.2l0.4 36.1q0.1 3.6 0 5.6-0.1 1.9-1.4 3.8-1.2 1.9-3.5 1.9-4.3 0.1-5-7.5-0.5-4.7-0.9-7.1-0.4-2.6-2-8.4-1.5-5.9-3.4-9.2-2-3.5-5.8-6.4-3.8-3-8.7-2.9-7.5 0-12.4 8.3-4.8 8.1-4.7 19.1 0.1 9.3 3.6 16.1 3.4 6.8 8.4 9.4l11.9 4.8q9.3 4.1 13.2 7.1 4 2.9 8.3 10.5 7.1 14.1 7.4 32.5 0.3 19.2-7.2 34-7.4 14.9-19.5 15-15.2 0.2-24.3-12.4-0.9 7.1-2 9.9-1 2.9-3.2 2.9-4.4 0.1-4.6-11.2zm80.6-1.3q-0.1-8.2 5.8-8.4l15.8-0.2-1.8-134.1-15.7 0.3q-6 0-6.1-8.5-0.1-8.2 5.9-8.3l41.5-0.5q6-0.1 6.1 8.3 0.1 8.2-5.9 8.4l-15.7 0.2 1.7 134.1 15.7-0.2q6-0.1 6.1 8.5 0.1 8.1-5.8 8.2l-41.5 0.5q-6 0.1-6.1-8.3zm69-0.7q-0.1-8.4 5.9-8.6l4.8-0.1-1.7-134-4.9 0.1q-5.9 0-6-8.3-0.2-8.4 5.8-8.5l55.6-0.7q3.7-0.1 4.8 2.2 1.1 2.3 1.2 9l0.3 19.9q0 3.6-0.2 5.5-0.1 1.9-1.3 3.9-1.1 1.9-3.5 1.9-3.3 0.1-4.2-2.7-0.9-3-0.9-8.5l-0.2-14.4-36.5 0.5 0.8 58.6 19.9-0.2q-0.1-6.9 0-9.4 0.2-2.7 1.3-4.5 1.1-1.9 3.5-1.9 3.4 0 4.2 2.9 0.9 2.8 0.9 8.3l0.4 25.6q0 3.6-0.1 5.5-0.1 1.8-1.3 3.9-1.1 1.9-3.5 1.9-3.5 0-4.3-3-0.8-3.1-0.9-12.6l-19.9 0.3 0.8 58.6 7.6-0.1q1.8 0 2.7 0.2 0.9 0.3 2 2.4 1.2 2 1.2 5.9 0.2 8.2-5.7 8.2l-22.5 0.3q-6 0.1-6.1-8.1zm84-1.3q-0.1-8.2 5.9-8.4l15.8-0.2-1.8-134.1-15.7 0.3q-6 0-6.1-8.5-0.1-8.2 5.8-8.3l41.6-0.5q5.9-0.1 6 8.3 0.2 8.2-5.8 8.4l-15.8 0.2 1.8 134.1 15.7-0.2q6-0.1 6.1 8.5 0.1 8.1-5.9 8.2l-41.5 0.5q-5.9 0.1-6.1-8.3zm68.8-0.6q-0.1-8.5 5.9-8.7l4.4-0.1-1.7-134-4.5 0.1q-5.9 0-6-8.5-0.2-8.2 5.8-8.3l54.4-0.7q3.7 0 4.8 2.2 1.1 2.3 1.2 9l0.3 19.9q0 3.6-0.1 5.5-0.1 1.9-1.4 3.9-1.2 1.9-3.5 1.9-3.4 0.1-4.2-2.7-0.8-2.9-0.9-8.4l-0.2-14.5-35.7 0.5 0.7 55.5 19.1-0.2q-0.1-6.8 0.1-9.4 0.2-2.7 1.2-4.4 1.1-1.8 3.6-1.8 3.4-0.1 4.2 2.9 0.9 2.8 1 8.3l0.3 25.4q0 3.6-0.1 5.5-0.2 1.9-1.3 3.9-1.1 1.9-3.4 1.9-3.5 0.1-4.4-2.9-0.8-3-1-12.7l-19.1 0.3 0.9 61.7 38.9-0.5-0.2-18.9q-0.1-3.6 0-5.5 0.1-2 1.3-3.9 1.3-1.9 3.6-1.9 3.3 0 4.1 2.9 0.9 2.8 1 8.3l0.3 24.4q0.1 6.5-1.1 9-1.1 2.2-4.6 2.3l-57.6 0.7q-6 0.1-6.1-8zm75.6-1q-0.1-8.5 5.8-8.7h3.2l-1.7-134.1-3.2 0.1q-6 0-6.1-8.3-0.1-8.4 5.9-8.5l30-0.4q14-0.1 23.3 25.2 9.3 25.2 9.7 59.5 0.5 34-8.2 58.3-8.6 24.4-22.6 24.6l-30 0.4q-6 0-6.1-8.1zm17.3-142.9l1.8 134 14-0.1q11.5-0.2 17.8-20.1 6.3-20 6-46-0.4-26.4-7.2-47.2-6.8-20.9-18.3-20.8zm69.5 164.8q-0.1-4.2 3.2-8.4 13.2-17.1 18.7-41.7 5.6-24.6 5.3-49.1-0.1-8.9-1.1-18.1-0.9-9.2-3.4-22.6-2.5-13.5-8.4-26.9-6-13.6-14.5-23.9-2.3-2.7-2.4-6.8 0-2.5 1-5 1.1-2.7 3.5-2.7 2.9-0.1 9.9 10.4 7.1 10.4 12.7 24.6 12.2 31.7 12.7 70.9 0.3 19.6-2.6 37.9-2.9 18.1-7.3 30.2-4.2 12.1-9.1 21.3-4.8 9-8.5 13.2-3.6 4.2-5.1 4.3-2.3 0-3.5-2.5-1.1-2.7-1.1-5.1z"/>
</svg>